<svg xmlns="http://www.w3.org/2000/svg" width="1920.5" height="305.884" viewBox="0 0 1920.5 305.884">
  <path id="Subtraction_17" data-name="Subtraction 17" d="M1963.5,400.889H43v-222.3c1.082.057,115.783,6.111,286.14,12.08,100.1,3.507,199.559,6.3,295.619,8.305,120.1,2.505,235.218,3.775,342.157,3.775,257.83,0,470.531-7.3,632.2-21.7,46.509-4.143,89.372-8.938,127.4-14.252,39.966-5.585,75.691-11.9,106.183-18.764,15.788-3.555,30.5-7.333,43.736-11.228,13.531-3.982,25.9-8.2,36.753-12.54a226.67,226.67,0,0,0,29.21-13.913A111.879,111.879,0,0,0,1963.5,95.005V400.888Z" transform="translate(-43 -95.005)" fill="#fa8e44"/>
</svg>
