<?xml version="1.0" standalone="no"?>
<svg xmlns:xlink="http://www.w3.org/1999/xlink" id="wave" style="transform:rotate(0deg); transition: 0.3s" viewBox="0 0 1440 340" version="1.1" xmlns="http://www.w3.org/2000/svg"><defs><linearGradient id="sw-gradient-0" x1="0" x2="0" y1="1" y2="0"><stop stop-color="rgba(243, 106, 62, 1)" offset="0%"/><stop stop-color="rgba(255, 179, 11, 1)" offset="100%"/></linearGradient></defs><path style="transform:translate(0, 0px); opacity:1" fill="url(#sw-gradient-0)" d="M0,102L60,85C120,68,240,34,360,22.7C480,11,600,23,720,51C840,79,960,125,1080,124.7C1200,125,1320,79,1440,51C1560,23,1680,11,1800,22.7C1920,34,2040,68,2160,119C2280,170,2400,238,2520,226.7C2640,215,2760,125,2880,90.7C3000,57,3120,79,3240,90.7C3360,102,3480,102,3600,90.7C3720,79,3840,57,3960,79.3C4080,102,4200,170,4320,198.3C4440,227,4560,215,4680,198.3C4800,181,4920,159,5040,153C5160,147,5280,159,5400,153C5520,147,5640,125,5760,113.3C5880,102,6000,102,6120,136C6240,170,6360,238,6480,266.3C6600,295,6720,283,6840,243.7C6960,204,7080,136,7200,130.3C7320,125,7440,181,7560,221C7680,261,7800,283,7920,272C8040,261,8160,215,8280,187C8400,159,8520,147,8580,141.7L8640,136L8640,340L8580,340C8520,340,8400,340,8280,340C8160,340,8040,340,7920,340C7800,340,7680,340,7560,340C7440,340,7320,340,7200,340C7080,340,6960,340,6840,340C6720,340,6600,340,6480,340C6360,340,6240,340,6120,340C6000,340,5880,340,5760,340C5640,340,5520,340,5400,340C5280,340,5160,340,5040,340C4920,340,4800,340,4680,340C4560,340,4440,340,4320,340C4200,340,4080,340,3960,340C3840,340,3720,340,3600,340C3480,340,3360,340,3240,340C3120,340,3000,340,2880,340C2760,340,2640,340,2520,340C2400,340,2280,340,2160,340C2040,340,1920,340,1800,340C1680,340,1560,340,1440,340C1320,340,1200,340,1080,340C960,340,840,340,720,340C600,340,480,340,360,340C240,340,120,340,60,340L0,340Z"/></svg>